<?xml version="1.0" standalone="no"?>
<!DOCTYPE svg PUBLIC "-//W3C//DTD SVG 20010904//EN"
 "http://www.w3.org/TR/2001/REC-SVG-20010904/DTD/svg10.dtd">
<svg version="1.0" xmlns="http://www.w3.org/2000/svg"
 width="128.000000pt" height="128.000000pt" viewBox="0 0 128.000000 128.000000"
 preserveAspectRatio="xMidYMid meet">
<metadata>
Created by potrace 1.14, written by Peter Selinger 2001-2017
</metadata>
<g transform="translate(0.000000,128.000000) scale(0.100000,-0.100000)"
fill="#000000" stroke="none">
<path d="M660 1249 c0 -5 -9 -9 -21 -9 -11 0 -17 -4 -14 -10 3 -5 1 -10 -5
-10 -18 0 -40 -27 -40 -50 0 -13 -4 -19 -12 -14 -8 5 -9 0 -6 -14 9 -32 -20
-61 -64 -64 -20 -1 -34 -6 -32 -10 3 -4 -6 -8 -20 -8 -14 0 -28 -4 -31 -10 -3
-5 -22 -10 -41 -10 -19 0 -34 -4 -34 -8 0 -4 -9 -8 -19 -8 -11 0 -18 3 -16 6
2 3 -8 10 -21 17 -16 7 -22 8 -17 1 4 -7 1 -8 -8 -2 -18 11 -60 13 -53 2 3 -4
-7 -8 -21 -8 -15 0 -24 -4 -20 -10 3 -5 1 -10 -5 -10 -16 0 -40 -26 -40 -44 0
-8 -4 -18 -10 -21 -26 -16 15 -135 47 -135 8 0 11 -4 8 -10 -5 -8 5 -13 25
-12 3 0 6 -11 7 -25 1 -19 -1 -22 -8 -12 -10 15 -6 -19 6 -56 6 -16 5 -17 -4
-5 -9 12 -11 -1 -9 -55 1 -38 7 -76 12 -84 8 -11 8 -13 -1 -7 -9 5 -13 1 -13
-11 0 -17 -9 -21 -57 -25 -7 -1 -11 -3 -9 -6 3 -2 -11 -19 -29 -38 -23 -23
-32 -40 -28 -51 4 -11 3 -14 -6 -9 -9 6 -12 -7 -10 -53 1 -33 5 -58 9 -56 3 2
12 -10 19 -27 8 -17 22 -33 32 -35 10 -3 16 -9 13 -14 -3 -5 3 -9 14 -9 10 0
22 -3 26 -7 3 -4 16 -8 27 -10 14 -2 18 1 13 9 -6 10 -4 11 7 0 17 -16 43 -16
33 1 -5 7 0 6 11 -3 11 -9 16 -10 11 -2 -5 8 -1 12 12 12 10 0 28 9 40 20 21
20 79 29 67 10 -4 -6 7 -10 25 -10 18 0 29 -4 25 -10 -3 -6 5 -10 19 -10 14 0
28 -4 31 -10 3 -5 15 -10 26 -10 10 0 19 -4 19 -10 0 -5 9 -10 21 -10 11 0 17
-5 14 -10 -4 -6 5 -10 19 -10 21 0 26 -5 27 -27 1 -16 0 -32 -1 -38 -1 -5 2
-7 6 -3 4 5 12 -2 18 -14 6 -12 25 -29 41 -39 33 -19 100 -25 110 -9 3 5 13
10 21 10 18 0 38 19 42 40 2 8 7 17 12 20 8 5 13 45 11 86 -1 11 -11 31 -23
44 -15 16 -18 25 -10 28 7 2 12 13 12 25 0 13 3 17 8 11 7 -12 22 -2 33 21 2
5 7 9 12 8 4 -2 7 4 7 13 0 8 5 12 10 9 6 -3 10 1 10 10 0 9 5 13 10 10 9 -6
14 8 11 28 -1 5 2 6 7 3 4 -2 14 -1 22 5 11 6 11 9 2 9 -10 0 -10 3 0 14 7 8
16 12 21 9 4 -2 7 3 7 12 0 9 5 13 10 10 6 -3 10 1 10 9 0 9 6 15 13 14 6 -2
11 3 9 10 -1 7 9 12 29 12 16 0 28 -4 25 -8 -2 -4 6 -8 19 -8 13 0 21 4 19 8
-3 4 4 8 16 8 12 0 28 7 37 15 8 8 19 13 24 10 8 -6 13 8 10 28 0 4 4 7 9 7 6
0 10 8 10 18 0 10 5 23 12 30 8 8 8 15 0 25 -7 8 -13 26 -14 40 -1 14 -6 23
-10 21 -4 -3 -8 1 -8 9 0 18 -84 61 -104 54 -9 -4 -22 0 -30 8 -7 8 -16 11
-20 8 -3 -4 -6 1 -6 10 0 10 -7 17 -17 17 -9 0 -14 3 -10 6 3 4 -16 28 -44 55
-27 26 -49 53 -49 60 0 7 -3 9 -6 6 -9 -9 -73 64 -74 83 0 13 -1 13 -10 0 -8
-12 -10 -11 -10 8 0 12 4 22 9 22 5 0 9 30 9 67 0 53 -5 71 -19 84 -10 9 -16
19 -12 23 3 3 -1 6 -10 6 -10 0 -17 5 -17 10 0 6 -7 10 -16 10 -8 0 -13 4 -10
8 3 5 -22 9 -55 9 -32 0 -59 -3 -59 -8z m-60 -239 c15 -16 35 -30 43 -30 9 0
17 -5 19 -11 6 -18 106 -14 119 5 4 5 17 1 30 -8 13 -9 20 -16 16 -16 -4 0 37
-45 93 -100 55 -54 100 -104 100 -110 0 -6 6 -8 13 -4 7 5 6 0 -3 -12 -29 -36
-39 -44 -60 -44 -21 0 -27 8 -33 50 -9 57 -34 105 -63 120 -13 7 -21 16 -19
20 2 4 -2 7 -10 8 -8 1 -22 3 -30 4 -8 1 -12 5 -9 10 3 4 -8 8 -23 8 -16 0
-35 6 -42 13 -11 10 -13 10 -7 0 5 -10 -4 -13 -33 -13 -23 0 -41 -5 -41 -11 0
-5 -4 -8 -9 -5 -4 3 -19 -3 -31 -14 -12 -11 -27 -17 -33 -13 -5 3 -7 1 -4 -4
4 -6 0 -13 -8 -17 -8 -3 -15 -12 -15 -19 0 -8 -7 -14 -15 -14 -8 0 -12 4 -9 9
3 4 -4 8 -15 8 -12 0 -21 5 -21 10 0 6 -9 10 -20 10 -11 0 -20 5 -20 11 0 5
-4 8 -9 5 -4 -3 -17 1 -27 9 -10 8 -27 15 -36 15 -12 0 -15 5 -11 17 4 10 2
14 -4 10 -5 -3 -10 0 -10 8 0 8 5 11 10 8 6 -4 7 -1 1 8 -19 31 -15 49 12 49
14 0 23 4 19 10 -3 6 4 10 17 10 13 0 30 6 37 13 11 10 12 9 6 -3 -6 -12 -5
-13 6 -2 7 6 27 12 44 12 23 0 26 3 15 10 -12 8 -9 10 13 10 19 0 38 -10 57
-30z m-202 -201 c2 -5 12 -9 23 -9 10 0 19 -4 19 -10 0 -5 3 -9 8 -8 4 1 22
-4 40 -12 31 -14 32 -17 32 -73 0 -44 3 -56 13 -51 7 5 6 0 -3 -11 -9 -11 -10
-16 -2 -11 8 5 12 -1 12 -19 0 -15 4 -24 10 -20 6 3 10 1 10 -6 0 -16 71 -79
90 -79 9 0 22 -6 29 -12 11 -11 13 -10 7 2 -5 9 -2 9 7 -2 8 -10 17 -15 20
-11 8 8 0 -33 -9 -49 -5 -7 -3 -8 5 -3 16 9 13 -63 -3 -84 -8 -11 -8 -13 2 -7
8 5 12 0 12 -18 0 -14 -4 -27 -9 -31 -6 -3 -8 4 -6 16 4 18 2 19 -12 7 -10 -7
-14 -8 -10 -1 4 6 0 18 -8 26 -8 9 -15 20 -15 24 0 5 -8 18 -18 29 -10 10 -25
35 -35 54 -9 19 -17 31 -17 25 0 -5 -9 8 -20 30 -11 22 -20 36 -20 30 0 -5 -9
7 -19 28 -9 20 -20 34 -24 30 -4 -3 -7 3 -7 15 0 12 -4 22 -10 22 -5 0 -10 7
-10 16 0 8 -4 12 -10 9 -5 -3 -10 3 -10 14 0 12 -4 21 -10 21 -5 0 -10 7 -10
16 0 9 -5 12 -12 8 -6 -4 -8 -3 -5 3 4 6 -5 23 -18 39 -14 16 -25 35 -25 42 0
6 -5 12 -11 12 -5 0 -8 4 -5 9 4 5 0 12 -6 15 -7 3 -2 3 12 0 14 -4 27 -11 28
-15z m-135 -23 c-5 -8 -2 -7 8 0 15 12 48 15 47 5 -2 -23 4 -41 12 -36 9 6 14
-8 11 -27 0 -5 3 -8 9 -8 6 0 10 -7 10 -16 0 -8 5 -12 10 -9 9 5 11 1 10 -20
-1 -3 6 -13 15 -21 8 -9 12 -20 9 -26 -4 -7 -2 -8 4 -4 7 4 12 1 12 -8 0 -9 5
-16 10 -16 6 0 10 -7 10 -16 0 -8 4 -12 10 -9 6 3 10 -1 10 -10 0 -9 9 -25 20
-37 11 -12 20 -28 20 -35 0 -7 5 -13 10 -13 6 0 10 -7 10 -16 0 -9 5 -12 13
-8 6 4 9 4 5 -1 -8 -9 22 -65 34 -65 4 0 8 -7 8 -15 0 -8 5 -15 10 -15 6 0 9
-6 8 -12 -2 -7 3 -12 10 -10 8 1 11 -2 8 -7 -4 -5 -1 -15 6 -23 32 -34 5 -108
-32 -88 -10 5 -20 6 -24 3 -3 -3 -6 -2 -6 4 0 10 -20 19 -60 28 -8 2 -16 9
-18 14 -2 6 -10 11 -18 11 -8 0 -22 4 -32 9 -9 5 -29 14 -44 22 -16 7 -28 16
-28 21 0 5 4 7 8 4 4 -2 8 4 9 14 1 11 -2 22 -8 25 -5 4 -9 22 -9 41 0 21 -4
33 -10 29 -5 -3 -10 1 -10 10 0 21 -24 45 -44 45 -9 0 -16 5 -16 10 0 6 -9 10
-20 10 -20 0 -24 20 -22 95 0 11 1 56 3 101 1 59 5 81 15 81 7 0 10 -5 7 -11z
m703 -160 c8 -8 14 -21 14 -28 0 -10 3 -9 10 2 5 8 10 10 10 5 0 -6 -6 -17
-12 -24 -10 -11 -10 -13 0 -7 8 5 12 -1 12 -18 0 -38 -1 -41 -11 -38 -5 1 -8
-1 -8 -5 3 -20 -2 -34 -11 -28 -5 3 -10 -1 -10 -10 0 -9 -4 -13 -10 -10 -5 3
-10 -1 -10 -10 0 -9 -4 -14 -8 -11 -4 2 -14 1 -22 -5 -11 -6 -11 -9 -2 -9 10
0 10 -3 0 -14 -7 -8 -16 -12 -20 -9 -5 2 -8 -3 -8 -12 0 -9 -4 -13 -10 -10 -5
3 -10 1 -10 -5 0 -11 -65 -80 -75 -80 -3 0 -5 8 -5 18 0 15 -2 15 -10 2 -8
-11 -9 -8 -6 12 3 15 8 33 12 39 4 8 3 9 -4 5 -7 -4 -12 -1 -12 9 0 10 5 13
13 9 9 -6 9 -4 1 7 -5 8 -11 28 -12 44 -2 24 2 32 25 42 15 7 32 12 36 12 5 0
17 9 26 20 10 11 21 18 25 14 3 -3 6 0 6 8 0 8 9 21 20 29 11 8 20 22 20 32 0
10 6 17 13 16 6 -2 11 3 10 10 -4 16 5 15 23 -2z"/>
</g>
</svg>
