<?xml version="1.0" encoding="UTF-8"?>
<svg width="512" height="512" version="1.1" viewBox="0 0 135.47 135.47" xmlns="http://www.w3.org/2000/svg">
	<g transform="translate(0 -161.53)" display="none">
		<g stroke="#000" stroke-width="5.2917">
			<path d="m109.37 227.49s1.4431-17.211 2.1011-26.858c0.67631-9.915-3.6054-19.343-3.6054-19.343s-10.733 7.0528-15.286 11.523c-2.7211 2.6716-7.0532 9.0073-7.0532 9.0073" fill="#00f"/>
			<path d="m26.879 227.49s-1.4431-17.211-2.1011-26.858c-0.67631-9.915 3.6054-19.343 3.6054-19.343s10.733 7.0528 15.286 11.523c2.7211 2.6716 7.0532 9.0073 7.0532 9.0073" fill="#f00"/>
			<path d="m68.792 188.93c8.1105 0 22.451 11.017 30.044 20.458 6.9523 8.644 14.531 19.998 12.397 30.884-2.0043 10.221-12.758 17.163-21.73 22.456-6.0804 3.5868-16.218 5.528-20.444 5.528-4.4933 0-14.269-2.1069-20.444-5.528-9.3917-5.2032-21.106-11.464-23.617-21.903-2.6352-10.954 4.5241-22.987 11.618-31.741 7.9681-9.8322 22.995-20.153 32.176-20.153z" fill="#0f0"/>
		</g>
		<g fill="#010101">
			<path d="m68.793 246.5c-1.7598 0-7.6596-7.5219-6.5649-8.8618 1.1307-1.3839 12.317-1.2804 13.13 0 1.1 1.7325-4.5344 8.8618-6.5649 8.8618z" style="paint-order:stroke fill markers"/>
			<rect x="66.934" y="245" width="3.7105" height="8.8155" style="paint-order:stroke fill markers"/>
			<circle cx="83.181" cy="227.7" r="7.0085" style="paint-order:stroke fill markers"/>
			<circle cx="53.607" cy="227.7" r="6.7413" style="paint-order:stroke fill markers"/>
		</g>
		<g fill="none" stroke="#000">
			<path d="m52.816 246.8-35.669-0.61325" stroke-width="3.5719"/>
			<path d="m54.123 252.08-31.889 13.148" stroke-width="3.5162"/>
			<path d="m84.761 247.18 34.597-0.61406" stroke-width="3.5719"/>
			<path d="m83.458 252.47 31.076 13.4" display="inline" stroke-width="3.504"/>
		</g>
	</g>
	<g>
		<path d="m66.403 30.795c30.892-0.17521 37.57 37.95 39.87 69.972-3.4812 2.085-7.4856-7.7056-15.937-3.2634-8.4511 4.4422-22.652 13.558-23.064 13.481-0.52045 0.07681-14.248-9.9368-22.55-14.393-8.3023-4.4566-12.917 6.2029-16.069 4.1756 2.1589-33.419 7.7654-69.802 37.75-69.972z" fill="#0f0" stroke="#000" stroke-width="5.2917"/>
		<circle cx="52.961" cy="57.569" r="5.4797" fill="#010101" style="paint-order:stroke fill markers"/>
		<path d="m66.959 24.201c33.091 0.16243 42.252 40.716 45.365 80.299-0.45562 0.9822-7.3427-8.7473-17.739-3.2824-10.397 5.4649-26.793 16.068-27.299 15.973-0.29653-43.134-0.46462-75.033-0.32633-92.989z" display="none" fill="#00f"/>
		<path d="m77.511 34.977c17.013 6.8125 23.889 31.061 26.42 63.236-0.37035 0.79839-5.9686-7.1103-14.42-2.6681-4.2256 2.2211-13.741 8.1362-22.213 13.064-6.6673-4.2126-9.4492-6.3402-9.6551-6.3786-0.24103-35.062 21.386-56.024 19.869-67.253z" fill="#00f"/>
		<path d="m66.621 61.222c3.2058-0.03461 8.0768 3.6859 13.471 15.727-2.6144 2.5161-12.621 14.762-12.975 14.692-0.4466 0.070621-10.353-11.729-12.871-14.292 4.7128-11.632 8.9863-16.09 12.375-16.126z" fill="#ff0" stroke="#000" stroke-width="5.2917"/>
		<circle cx="80.441" cy="57.569" r="5.6969" fill="#010101" style="paint-order:stroke fill markers"/>
	</g>
</svg>
