<?xml version="1.0" encoding="UTF-8"?>
<!-- Created with Inkscape (http://www.inkscape.org/) -->
<svg width="512" height="512" version="1.1" viewBox="0 0 135.47 135.47" xmlns="http://www.w3.org/2000/svg" xmlns:cc="http://creativecommons.org/ns#" xmlns:dc="http://purl.org/dc/elements/1.1/" xmlns:rdf="http://www.w3.org/1999/02/22-rdf-syntax-ns#">
	<metadata>
		<rdf:RDF>
			<cc:Work rdf:about="">
				<dc:format>image/svg+xml</dc:format>
				<dc:type rdf:resource="http://purl.org/dc/dcmitype/StillImage"/>
				<dc:title/>
			</cc:Work>
		</rdf:RDF>
	</metadata>
	<g transform="translate(0 -161.53)" display="none">
		<g stroke="#000" stroke-width="5.2917">
			<path d="m109.37 225.9s1.4431-17.211 2.1011-26.858c0.67631-9.915-3.6054-19.343-3.6054-19.343s-10.733 7.0528-15.286 11.523c-2.7211 2.6716-7.0532 9.0073-7.0532 9.0073" fill="#00f"/>
			<path d="m26.879 225.9s-1.4431-17.211-2.1011-26.858c-0.67631-9.915 3.6054-19.343 3.6054-19.343s10.733 7.0528 15.286 11.523c2.7211 2.6716 7.0532 9.0073 7.0532 9.0073" fill="#f00"/>
			<path d="m68.792 198.46c10.656 0.15964 22.134 3.7913 30.044 10.933 7.0358 6.3518 13.387 16.165 12.397 25.592-1.2938 12.314-12.267 22.805-22.788 29.335-5.6028 3.4772-12.792 3.9405-19.386 3.9405-6.5941 0-13.701-0.59955-19.386-3.9405-10.895-6.4028-22.819-16.282-24.675-28.782-1.4144-9.5249 4.4936-19.97 11.618-26.449 8.3567-7.5994 20.882-10.797 32.176-10.628z" fill="#0f0"/>
		</g>
		<g>
			<path d="m68.793 245.97c-1.7598 0-7.6596-7.5219-6.5649-8.8618 1.1307-1.3839 12.317-1.2804 13.13 0 1.1 1.7325-4.5344 8.8618-6.5649 8.8618z" style="paint-order:stroke fill markers"/>
			<rect x="66.934" y="244.47" width="3.7105" height="8.8155" style="paint-order:stroke fill markers"/>
			<circle cx="83.181" cy="225.58" r="7.0085" style="paint-order:stroke fill markers"/>
			<circle cx="53.607" cy="225.58" r="6.7413" style="paint-order:stroke fill markers"/>
		</g>
		<g fill="none" stroke="#000" stroke-width="5.2917">
			<path d="m52.827 243.1-40.502-0.60907"/>
			<path d="m54.045 248.58-36.544 14.617"/>
			<path d="m84.748 243.48 40.502-0.60908"/>
			<path d="m83.53 248.96 36.544 14.617"/>
		</g>
	</g>
	<g transform="translate(0 -161.53)">
		<g stroke="#000" stroke-width="5.2917">
			<path d="m89.974 198.05s4.6219-7.1983 8.1959-7.318c8.4906-0.28427 17.049 14.182 22.192 24.882 5.6221 11.697 7.9113 21.282 3.5116 33.492-1.9707 5.4691-8.302 18.089-11.651 17.997-5.4209-0.1494-6.133-8.9454-9.1796-13.432-2.5132-3.7007-1.9447-5.5621-1.9447-5.5621" fill="#00f"/>
			<path d="m45.477 198.05s-4.554-7.3663-8.1279-7.486c-8.4905-0.28428-17.049 14.182-22.192 24.882-5.6221 11.697-7.9113 21.282-3.5116 33.492 1.9707 5.4691 8.302 18.089 11.651 17.997 5.4208-0.14938 6.133-8.9453 9.1796-13.432 2.5132-3.7007 1.8767-5.3941 1.8767-5.3941" fill="#f00"/>
			<path d="m67.725 192.33c7.6808 0 16.363 0.68351 22.354 4.8814 4.8739 3.415 5.1563 9.2767 6.2872 14.644 1.6942 8.0412-0.33872 16.281 0.69858 24.407 0.65279 5.1137 4.6091 9.5117 4.1915 14.644-0.59058 7.2584-4.0904 15.7-11.177 19.526-6.3386 3.4217-14.903 0-22.354 0s-16.016 3.4217-22.354 0c-7.0868-3.8256-10.587-12.267-11.177-19.526-0.4176-5.1325 3.611-9.5238 4.1915-14.644 0.92496-8.159-1.7362-16.349-1e-6 -24.407 1.1756-5.4557 1.9635-11.242 6.9858-14.644 6.0693-4.1116 14.674-4.8814 22.354-4.8814z" fill="#0f0"/>
		</g>
		<g fill="#010101">
			<path d="m67.725 260.62c-2.5824 0-11.24-11.038-9.6339-13.005 1.6592-2.0309 18.075-1.879 19.268 0 1.6142 2.5424-6.6542 13.005-9.6339 13.005z" style="paint-order:stroke fill markers"/>
			<rect x="65.863" y="259.38" width="3.377" height="10.975" style="paint-order:stroke fill markers"/>
			<circle cx="82.326" cy="228.89" r="6.2326" style="paint-order:stroke fill markers"/>
			<circle cx="52.777" cy="228.89" r="6.2326" style="paint-order:stroke fill markers"/>
		</g>
	</g>
	<g display="none">
		<g stroke="#000" stroke-width="5.2917">
			<path d="m47.629 83.926s-0.32117 3.4616-3.4373 9.3139c-3.0693 5.7644-7.2072 8.8704-7.2072 8.8704s9.5317 0.65358 16.632-6.2093c5.0964-4.926 4.8787-9.0921 4.8787-9.0921" display="inline" fill="#00f" stroke-linejoin="round"/>
			<path d="m86.679 83.827s0.32117 3.4616 3.4373 9.3139c3.0693 5.7644 7.2072 8.8704 7.2072 8.8704s-9.5317 0.6536-16.632-6.2093c-5.0964-4.926-4.8787-9.0921-4.8787-9.0921" fill="#f00" stroke-linejoin="round"/>
			<g>
				<path d="m85.349 35.04s1.8158-3.1413 3.3264-4.2134c1.6186-1.1488 21.527-3.0197 23.507-0.22176 5.3749 7.5962 15.31 17.955 15.301 23.285-0.0133 8.124-13.41 40.318-15.08 41.247-1.954 1.0877-23.95-12.419-23.95-12.419" fill="#00f"/>
				<path d="m50.543 34.963s-1.8158-3.1413-3.3264-4.2134c-1.6186-1.1488-21.527-3.0197-23.506-0.22176-5.3749 7.5962-15.423 18.1-15.301 23.285 0.21625 9.2121 13.41 40.318 15.08 41.247 1.954 1.0877 23.95-12.419 23.95-12.419" display="inline" fill="#f00"/>
				<path d="m53.06 33.044c3.9051-2.1226 27.674-1.5777 31.091 0.44352 3.0093 1.7804 9.6339 16.38 9.4913 19.822-0.14387 3.4735-3.6698 11.345-4.5239 14.715-1.8775 7.408 1.1961 12.468-0.44352 14.721-1.311 1.8018-3.4896 1.807-7.052 2.5895-9.7035 2.1313-16.996 2.5748-26.7 0.44352-3.5624-0.78243-6.0337-0.88455-7.4955-2.5895-1.6476-1.9217 1.4339-7.5352-0.44352-14.943-0.85408-3.37-4.1638-11.463-4.3021-14.936-0.14257-3.581 6.3571-18.08 10.378-20.265z" fill="#0f0"/>
				<path d="m58.737 68.26s-1.4364 22.54 2.3063 32.865c2.0137 5.5549 5.8027 10.632 10.378 14.37 3.7411 3.0566 13.205 5.9728 13.205 5.9728l5.7332-7.7912s-9.9958-4.993-12.729-9.5357c-2.7079-4.5007-2.2767-10.318-2.4394-15.568-0.20604-6.6491 1.8628-19.87 1.8628-19.87" fill="#0f0"/>
			</g>
		</g>
		<circle cx="57.327" cy="52.254" r="6.2326" display="inline" style="paint-order:stroke fill markers"/>
		<circle cx="78.732" cy="52.254" r="6.2326" display="inline" style="paint-order:stroke fill markers"/>
	</g>
</svg>
