<?xml version="1.0" encoding="UTF-8"?>
<!-- Created with Inkscape (http://www.inkscape.org/) -->
<svg width="512" height="512" version="1.1" viewBox="0 0 135.47 135.47" xmlns="http://www.w3.org/2000/svg">
	<g>
		<path d="m53.996 32.521c4.0075-2.2341 28.4-1.6605 31.906 0.46681 3.0882 1.8739 12.214 22.142 12.067 25.765-0.14764 3.6559-0.17549 16.504-2.4838 20.043-2.4218 3.7131-7.7437 11.987-9.4667 17.154-0.96894 2.9059 0.34747 10.9-1.6112 19.733-0.58914 2.6568-5.1937 5.7942-8.9981 5.6757-4.4262-0.13797-8.9546 0.21098-13.211 0.0703-4.7943-0.15843-8.118-3.5012-9.1314-6.2812-2.7347-7.502-1.2011-18.323-1.5933-19.877-1.3709-5.4299-5.2134-12.76-8.0053-16.675-2.1872-3.0669-2.7764-16.023-2.9183-19.68-0.14631-3.7691 9.3193-24.096 13.446-26.396z" fill="#0f0" stroke="#000" stroke-width="5.2917"/>
		<ellipse cx="52.426" cy="65.535" rx="6.396" ry="6.5599" fill="#010101" style="paint-order:stroke fill markers"/>
		<ellipse cx="86.156" cy="65.767" rx="6.396" ry="6.5599" fill="#010101" style="paint-order:stroke fill markers"/>
		<path d="m86.431 34.501s0.98854-4.6329 2.1334-8.1554c1.431-4.4031 8.7274-11.338 8.7274-11.338s3.3666 10.044 3.491 15.913c0.14314 6.7562-3.491 17.504-3.491 17.504z" fill="#f00" stroke="#000" stroke-width="5.2917"/>
		<path d="m74.559 102.9c0.53776-0.59983 3.0901 0.96404 3.4441 2.9164 0.177 0.97618 0.6067 3.0712-0.22819 4.0613-0.83489 0.99004-2.8941 0.86348-3.3412 0.44457-0.44704-0.41892 0.53528-2.5856 0.25542-4.1291-0.27987-1.5435-0.66797-2.6933-0.13021-3.2932z"/>
		<path d="m51.676 34.501s-0.98854-4.6329-2.1334-8.1554c-1.431-4.4031-8.7274-11.338-8.7274-11.338s-3.3666 10.044-3.491 15.913c-0.14314 6.7562 3.491 17.504 3.491 17.504z" fill="#f00" stroke="#000" stroke-width="5.2917"/>
		<path d="m64.709 95.766c-0.06769 1.4824 8.1409 1.3904 8.1456 0 0.01436-4.2394-0.21081-25.913 1e-6 -30.632 0.10049-2.2495 8.2122-9.0954 8.1456-11.139-0.05737-1.7603-6.1307-9.1296-10.861-11.139-0.83617-0.35523-1.879-0.35523-2.7152 0-4.7301 2.0095-10.885 9.1821-10.861 11.139 0.02314 1.8532 8.1732 9.4962 8.1456 11.139-0.07275 4.3293 0.19845 26.287-1e-6 30.632z" fill="#ff0"/>
		<path d="m71.525 55.644c-5.2178-2.7442-12.656-8.3977-15.387-14.735-0.95525-3.5785-1.7464-10.566 0.099846-13.586 2.652-4.3374 7.0513-7.0629 12.339-7.0629 5.7449 0 10.497 2.3452 13.045 7.0629 2.6184 4.8485 0.69892 19.394 0.69892 19.394l-7.417-5.0945z" fill="#00f" stroke="#000" stroke-width="5.2917"/>
		<path d="m62.438 102.86c-0.53776-0.59983-3.0901 0.96404-3.4441 2.9164-0.177 0.97617-0.6067 3.0712 0.22818 4.0612 0.83489 0.99005 2.8941 0.86349 3.3412 0.44458 0.44704-0.41892-0.53528-2.5856-0.25542-4.1291 0.27987-1.5435 0.66797-2.6933 0.13021-3.2932z"/>
	</g>
</svg>
