<?xml version="1.0" encoding="UTF-8"?>
<svg width="512" height="512" version="1.1" viewBox="0 0 135.47 135.47" xmlns="http://www.w3.org/2000/svg" xmlns:cc="http://creativecommons.org/ns#" xmlns:dc="http://purl.org/dc/elements/1.1/" xmlns:rdf="http://www.w3.org/1999/02/22-rdf-syntax-ns#">
 <metadata>
  <rdf:RDF>
   <cc:Work rdf:about="">
    <dc:format>image/svg+xml</dc:format>
    <dc:type rdf:resource="http://purl.org/dc/dcmitype/StillImage"/>
    <dc:title/>
   </cc:Work>
  </rdf:RDF>
 </metadata>
 <g transform="translate(0 -161.53)" display="none">
  <g stroke="#000" stroke-width="5.2917">
   <path d="m109.37 227.49s1.4431-17.211 2.1011-26.858c0.67631-9.915-3.6054-19.343-3.6054-19.343s-10.733 7.0528-15.286 11.523c-2.7211 2.6716-7.0532 9.0073-7.0532 9.0073" fill="#00f"/>
   <path d="m26.879 227.49s-1.4431-17.211-2.1011-26.858c-0.67631-9.915 3.6054-19.343 3.6054-19.343s10.733 7.0528 15.286 11.523c2.7211 2.6716 7.0532 9.0073 7.0532 9.0073" fill="#f00"/>
   <path d="m68.792 188.93c8.1105 0 22.451 11.017 30.044 20.458 6.9523 8.644 14.531 19.998 12.397 30.884-2.0043 10.221-12.758 17.163-21.73 22.456-6.0804 3.5868-16.218 5.528-20.444 5.528-4.4933 0-14.269-2.1069-20.444-5.528-9.3917-5.2032-21.106-11.464-23.617-21.903-2.6352-10.954 4.5241-22.987 11.618-31.741 7.9681-9.8322 22.995-20.153 32.176-20.153z" fill="#0f0"/>
  </g>
  <g fill="#010101">
   <path d="m68.793 246.5c-1.7598 0-7.6596-7.5219-6.5649-8.8618 1.1307-1.3839 12.317-1.2804 13.13 0 1.1 1.7325-4.5344 8.8618-6.5649 8.8618z" style="paint-order:stroke fill markers"/>
   <rect x="66.934" y="245" width="3.7105" height="8.8155" style="paint-order:stroke fill markers"/>
   <circle cx="83.181" cy="227.7" r="7.0085" style="paint-order:stroke fill markers"/>
   <circle cx="53.607" cy="227.7" r="6.7413" style="paint-order:stroke fill markers"/>
  </g>
  <g fill="none" stroke="#000">
   <path d="m52.816 246.8-35.669-0.61325" stroke-width="3.5719"/>
   <path d="m54.123 252.08-31.889 13.148" stroke-width="3.5162"/>
   <path d="m84.761 247.18 34.597-0.61406" stroke-width="3.5719"/>
   <path d="m83.458 252.47 31.076 13.4" display="inline" stroke-width="3.504"/>
  </g>
 </g>
 <g transform="translate(0 -161.53)">
  <g>
   <g stroke="#000">
    <path d="m86.366 223.71c17.311-3.3585 18.942-6.9368 22.007-11.721 3.4817-5.434 16.672-28.756 14.126-34.055-7.9106 0.72034-33.245 13.656-37.712 17.745-3.6847 3.3731-9.0244 18.511-9.0244 18.511" fill="#03f" stroke-width="5.2917"/>
    <path d="m82.891 216.09c5.4983-10.589 7.5335-16.67 24.23-32.542-9.4819 3.9785-17.112 7.1666-21.671 10.955-3.7602 3.1252-9.6625 17.65-9.6625 17.65" fill="#00ff21" stroke-width="3.9688"/>
    <path d="m50.912 222.22c-16.744-4.3324-17.918-7.9545-20.627-12.803-3.0771-5.5075-14.567-29.038-11.751-34.044 7.7013 1.1863 31.716 15.341 35.84 19.598 3.4017 3.512 7.7051 18.588 7.7051 18.588" fill="#f00" stroke-width="5.2917"/>
    <path d="m54.593 216.7c-4.3257-11.119-5.6941-17.384-20.584-34.963 8.9981 4.9766 16.241 8.9681 20.365 13.226 3.4017 3.512 7.7051 18.588 7.7051 18.588" fill="#00ff21" stroke-width="3.9688"/>
    <path d="m68.028 212.35c6.8295 0 12.173 1.083 17.5 4.8156 4.3337 3.0364 4.4705 9.4808 7.8252 13.379 6.485 7.5352 8.8623 10.069 8.1239 19.095-0.73835 9.0268-7.6259 14.311-12.216 18.463-5.6958 5.1513-11.043 5.437-21.233 5.437-11.141 0-17.034-1.4739-20.856-4.9329-5.2004-4.707-12.429-9.0826-12.761-18.602s2.2836-13.078 9.9369-20.538c3.53-3.4411 2.4275-9.2757 6.8932-12.301 5.3966-3.6558 9.9578-4.8156 16.787-4.8156z" fill="#0f0" stroke-width="5.2917"/>
   </g>
   <path d="m59.923 258.03c1.9957-5.225 4.3989-8.5877 4.782-10.983 0.72304-4.5207 0.2792-17.687 0.34775-21.148 0.13383-6.756-4.2438-10.522-4.2438-10.522s3.6199-0.72489 7.3369-0.7393c4.5215-0.0175 7.8361 0.82332 7.8361 0.82332s-4.1767 3.0284-3.9391 10.633c0.11882 3.8023-0.7554 18.836 0.05184 21.208 0.56476 1.6601 3.2344 10.531 3.2344 10.531l-7.2686 4.8921s-8.2516-4.3968-8.1376-4.6952z" fill="#efff00"/>
  </g>
  <g fill="#010101">
   <circle cx="81.01" cy="241.56" r="5.5418" style="paint-order:stroke fill markers"/>
   <circle cx="54.736" cy="241.56" r="5.5418" style="paint-order:stroke fill markers"/>
   <rect x="66.372" y="261.57" width="3.0027" height="9.7587" style="paint-order:stroke fill markers"/>
   <rect transform="rotate(-50.739)" x="-163.32" y="209.52" width="3.0027" height="9.7587" style="paint-order:stroke fill markers"/>
   <rect transform="matrix(-.63286 -.77427 -.77427 .63286 0 0)" x="-249.17" y="104.48" width="3.0027" height="9.7587" style="paint-order:stroke fill markers"/>
  </g>
  <g fill="none" stroke="#000">
   <path d="m53.339 254.2-31.716-0.54528" stroke-width="3.176"/>
   <path d="m54.502 258.89-28.355 11.691" stroke-width="3.1264"/>
   <path d="m81.743 254.53 30.762-0.546" stroke-width="3.176"/>
   <path d="m80.585 259.23 27.631 11.914" stroke-width="3.1156"/>
  </g>
 </g>
</svg>
